<svg id="visual" viewBox="0 0 900 600" width="900" height="600" xmlns="http://www.w3.org/2000/svg" xmlns:xlink="http://www.w3.org/1999/xlink" version="1.1"><rect x="0" y="0" width="900" height="600" fill="#FFFFFF"></rect><path d="M304 0L299.5 20C295 40 286 80 277.3 120C268.7 160 260.3 200 256.3 240C252.3 280 252.7 320 261.5 360C270.3 400 287.7 440 297.8 480C308 520 311 560 312.5 580L314 600L0 600L0 580C0 560 0 520 0 480C0 440 0 400 0 360C0 320 0 280 0 240C0 200 0 160 0 120C0 80 0 40 0 20L0 0Z" fill="#C62368" stroke-linecap="round" stroke-linejoin="miter"></path></svg>